<svg width="34" height="34" viewBox="0 0 34 34" fill="none" xmlns="http://www.w3.org/2000/svg">
<mask id="mask0_119_1111" style="mask-type:alpha" maskUnits="userSpaceOnUse" x="0" y="0" width="34" height="34">
<rect width="33.25" height="33.25" fill="#D9D9D9"/>
</mask>
<g mask="url(#mask0_119_1111)">
<path d="M27.6391 29.0938C24.7528 29.0938 21.9011 28.4645 19.0841 27.2061C16.2671 25.9477 13.7041 24.164 11.3951 21.8549C9.08602 19.5459 7.3023 16.9829 6.04388 14.1659C4.78546 11.3489 4.15625 8.49722 4.15625 5.61094C4.15625 5.19531 4.29479 4.84896 4.57188 4.57188C4.84896 4.29479 5.19531 4.15625 5.61094 4.15625H11.2219C11.5451 4.15625 11.8338 4.26593 12.0878 4.48529C12.3418 4.70464 12.4918 4.96441 12.538 5.26458L13.4385 10.1135C13.4847 10.483 13.4732 10.7947 13.4039 11.0487C13.3346 11.3027 13.2076 11.522 13.0229 11.7068L9.66328 15.101C10.1251 15.9554 10.6735 16.7809 11.3085 17.5775C11.9434 18.3741 12.6419 19.1418 13.4039 19.8807C14.1197 20.5965 14.8701 21.2604 15.6552 21.8723C16.4403 22.4842 17.2715 23.0441 18.149 23.5521L21.4047 20.2964C21.6125 20.0885 21.8838 19.9327 22.2186 19.8288C22.5534 19.7249 22.8825 19.696 23.2057 19.7422L27.9854 20.712C28.3087 20.8043 28.5742 20.9717 28.782 21.2142C28.9898 21.4566 29.0938 21.728 29.0938 22.0281V27.6391C29.0938 28.0547 28.9552 28.401 28.6781 28.6781C28.401 28.9552 28.0547 29.0938 27.6391 29.0938Z" fill="white"/>
</g>
</svg>
