<svg width="34" height="34" viewBox="0 0 34 34" fill="none" xmlns="http://www.w3.org/2000/svg">
<g clip-path="url(#clip0_119_1121)">
<path d="M16.625 0C7.43969 0 0 7.43969 0 16.625C0 23.9816 4.75891 30.1952 11.3673 32.398C12.1986 32.5434 12.5103 32.0447 12.5103 31.6083C12.5103 31.2134 12.4895 29.9042 12.4895 28.5119C8.3125 29.2808 7.23187 27.4936 6.89937 26.5584C6.71234 26.0805 5.90188 24.605 5.19531 24.2102C4.61344 23.8984 3.78219 23.1295 5.17453 23.1087C6.48375 23.088 7.41891 24.3141 7.73063 24.8128C9.22688 27.3273 11.6167 26.6208 12.5727 26.1844C12.7181 25.1037 13.1545 24.3764 13.6325 23.9608C9.93344 23.5452 6.06813 22.1112 6.06813 15.7522C6.06813 13.9442 6.71234 12.448 7.77219 11.2842C7.60594 10.8686 7.02406 9.16453 7.93844 6.87859C7.93844 6.87859 9.33078 6.44219 12.5103 8.58266C13.8403 8.20859 15.2534 8.02156 16.6666 8.02156C18.0797 8.02156 19.4928 8.20859 20.8228 8.58266C24.0023 6.42141 25.3947 6.87859 25.3947 6.87859C26.3091 9.16453 25.7272 10.8686 25.5609 11.2842C26.6208 12.448 27.265 13.9234 27.265 15.7522C27.265 22.132 23.3789 23.5452 19.6798 23.9608C20.2825 24.4803 20.802 25.4778 20.802 27.0364C20.802 29.26 20.7812 31.0472 20.7812 31.6083C20.7812 32.0447 21.093 32.5642 21.9242 32.398C25.2251 31.2846 28.0935 29.1637 30.1253 26.3341C32.1572 23.5044 33.25 20.1086 33.25 16.625C33.25 7.43969 25.8103 0 16.625 0Z" fill="white"/>
</g>
<defs>
<clipPath id="clip0_119_1121">
<rect width="33.25" height="33.25" fill="white"/>
</clipPath>
</defs>
</svg>
