<svg width="88" height="89" viewBox="0 0 88 89" fill="none" xmlns="http://www.w3.org/2000/svg">
<path d="M0.107422 13.861L34.4828 9.02698V42.9726H0.107422V13.861Z" fill="white"/>
<path d="M39.1016 8.38252L87.1196 1.61487V42.7579H39.1016V8.38252Z" fill="white"/>
<path d="M0 47.3242L34.3754 47.4845V81.4302L0 76.7044V47.3242Z" fill="white"/>
<path d="M38.9946 47.3771L87.2276 47.5709V88.6275L38.9946 81.9673V47.3771Z" fill="white"/>
<path d="M6.91943 32.4771C7.99366 32.7099 8.93362 32.8262 9.73929 32.8262H10.0347C10.4465 32.7904 10.724 32.6293 10.8672 32.3428C11.0284 32.0564 11.1089 31.6625 11.1089 31.1612V16.7397L15.7013 16.3368L18.3868 17.6796V33.3365C18.3868 36.8994 16.874 38.8151 13.8482 39.0836C13.2932 39.1373 12.765 39.1642 12.2637 39.1642C11.8161 39.1642 11.3954 39.1463 11.0015 39.1105C10.6076 39.0747 10.2585 39.0299 9.95413 38.9762L7.2417 37.6334L6.91943 32.4771ZM11.3775 16.9814V31.1612C11.3775 31.752 11.279 32.2175 11.0821 32.5577C10.8851 32.88 10.545 33.059 10.0616 33.0948H9.73929C9.38121 33.0948 8.96047 33.0679 8.47707 33.0142C7.99366 32.9605 7.57292 32.8979 7.21485 32.8262L7.51026 37.3917C7.76091 37.4275 8.05633 37.4633 8.3965 37.4991C8.73667 37.535 9.12161 37.5529 9.5513 37.5529C10.0526 37.5529 10.5808 37.526 11.1358 37.4723C14.0004 37.2395 15.4327 35.4134 15.4327 31.9937V16.6322L11.3775 16.9814ZM20.6209 37.6334V32.3697L25.4549 31.94L28.1405 33.2828V38.5734L23.3065 38.9762L20.6209 37.6334ZM20.8895 32.6114V37.338L25.1864 36.9889V32.2354L20.8895 32.6114Z" fill="url(#paint0_linear_119_1275)"/>
<path d="M24.0266 70.1557C23.4895 71.409 22.6211 72.4653 21.4216 73.3247C20.2399 74.1841 18.7807 74.6854 17.0441 74.8286C16.8829 74.8465 16.7218 74.8555 16.5607 74.8555C16.3995 74.8555 16.2384 74.8555 16.0773 74.8555C14.7345 74.8555 13.4544 74.6227 12.2369 74.1572C11.0373 73.6917 9.97206 72.9935 9.04106 72.0625C8.11006 71.1136 7.376 69.914 6.83888 68.4638C6.30177 67.0136 6.03321 65.2948 6.03321 63.3075C6.03321 61.7857 6.2212 60.3623 6.59718 59.0374C6.97316 57.6947 7.51923 56.5041 8.23538 55.4656C8.96944 54.4272 9.85568 53.5947 10.8941 52.9681C11.9325 52.3414 13.1052 51.9744 14.4122 51.867C14.5196 51.8491 14.6271 51.8401 14.7345 51.8401C14.8419 51.8401 14.9493 51.8401 15.0567 51.8401C16.3637 51.8401 17.6349 52.1355 18.8703 52.7263C20.1235 53.3172 21.2157 54.1228 22.1467 55.1434C23.0956 56.1639 23.767 57.3187 24.1608 58.6078L20.965 60.4071L21.341 60.3802L24.0266 61.723V70.1557ZM13.0963 61.347V65.1606L17.2321 64.8114V67.121C16.9993 67.5865 16.6233 67.9894 16.1041 68.3295C15.6028 68.6518 15.0746 68.8308 14.5196 68.8667C14.448 68.8846 14.3674 68.8935 14.2779 68.8935C14.2063 68.8935 14.1257 68.8935 14.0362 68.8935C12.8725 68.8935 11.9952 68.428 11.4044 67.497C10.8135 66.566 10.5181 65.0531 10.5181 62.9584C10.5181 61.0606 10.8225 59.5477 11.4312 58.4198C12.0399 57.2918 13.0157 56.6741 14.3585 56.5667H14.6539C15.388 56.5667 16.0146 56.7816 16.5338 57.2113C17.0709 57.641 17.4559 58.2676 17.6886 59.0912L21.153 57.1307C20.8486 56.2713 20.4279 55.4656 19.8908 54.7137C19.3716 53.9438 18.7181 53.3172 17.9303 52.8338C17.1425 52.3504 16.1847 52.1087 15.0567 52.1087C14.9672 52.1087 14.8688 52.1087 14.7613 52.1087C14.6539 52.1087 14.5465 52.1176 14.4391 52.1355C12.7382 52.2788 11.279 52.8696 10.0616 53.908C8.84411 54.9285 7.91311 56.2624 7.26858 57.9095C6.62404 59.5388 6.30177 61.3381 6.30177 63.3075C6.30177 65.3486 6.59718 67.1121 7.18801 68.5981C7.77884 70.0841 8.62032 71.23 9.71245 72.0356C10.8046 72.8413 12.1026 73.2441 13.6065 73.2441C13.7319 73.2441 13.8482 73.2441 13.9557 73.2441C14.081 73.2441 14.2063 73.2352 14.3316 73.2173C16.0146 73.0741 17.429 72.5996 18.5748 71.7939C19.7386 70.9704 20.5801 69.9588 21.0993 68.7592V60.6757L13.0963 61.347ZM17.5275 59.494C17.4559 59.2433 17.3753 59.0106 17.2858 58.7957C17.1963 58.563 17.0978 58.3571 16.9904 58.1781C16.1847 58.2497 15.5222 58.5361 15.003 59.0374C14.5017 59.5209 14.1257 60.1833 13.8751 61.0248L19.6759 60.5414L17.5275 59.494ZM15.6476 66.8525L13.5528 65.7782C13.5886 66.4944 13.6602 67.0584 13.7677 67.4702C13.893 67.864 14.072 68.249 14.3048 68.625C14.3585 68.607 14.4212 68.5981 14.4928 68.5981C14.9583 68.5623 15.4238 68.4191 15.8893 68.1684C16.3548 67.8998 16.7128 67.5865 16.9635 67.2285V66.6913L15.6476 66.8525Z" fill="url(#paint1_linear_119_1275)"/>
<path d="M59.0031 80.7114C58.8527 80.7329 58.6916 80.7437 58.5197 80.7437C58.3693 80.7437 58.2189 80.7437 58.0685 80.7437C56.9513 80.7437 55.92 80.5825 54.9747 80.2603C54.0509 79.9595 53.1485 79.605 52.2677 79.1968C49.9688 78.0581 48.2823 76.4575 47.208 74.395C46.1553 72.311 45.6289 69.8402 45.6289 66.9828C45.6289 65.307 45.833 63.6849 46.2412 62.1165C46.6709 60.5267 47.3047 59.0979 48.1426 57.8304C48.9805 56.5413 50.0225 55.4885 51.2686 54.6721C52.5362 53.8557 54.0187 53.3723 55.7159 53.2219C55.8878 53.2004 56.0489 53.1897 56.1993 53.1897C56.3497 53.1897 56.5001 53.1897 56.6505 53.1897C57.7247 53.1897 58.6808 53.3293 59.5187 53.6086C60.3566 53.8664 61.2053 54.1672 62.0646 54.511C63.6115 55.134 64.9006 56.0579 65.9319 57.2825C66.9631 58.5071 67.7366 59.9466 68.2522 61.6009C68.7678 63.2337 69.0256 64.9847 69.0256 66.8539C69.0256 68.5941 68.8215 70.2592 68.4133 71.849C68.0051 73.4389 67.3821 74.8784 66.5442 76.1675C65.7278 77.435 64.6858 78.4663 63.4182 79.2612C62.1721 80.0777 60.7004 80.5611 59.0031 80.7114ZM55.7482 78.7778C57.4025 78.6489 58.8419 78.1977 60.0666 77.4243C61.2912 76.6294 62.301 75.6089 63.0959 74.3627C63.8908 73.0952 64.4817 71.6879 64.8684 70.141C65.2766 68.5726 65.4807 66.9398 65.4807 65.2425C65.4807 63.6956 65.2981 62.224 64.9328 60.8275C64.5891 59.4095 64.052 58.1526 63.3215 57.0569C62.591 55.9612 61.6672 55.1018 60.55 54.4788C59.4543 53.8342 58.1544 53.5119 56.6505 53.5119C56.5001 53.5119 56.3497 53.5119 56.1993 53.5119C56.0704 53.5119 55.92 53.5227 55.7482 53.5442C54.0938 53.6946 52.6544 54.1672 51.4298 54.9622C50.2051 55.7356 49.1846 56.7561 48.3682 58.0237C47.5518 59.2698 46.9395 60.6663 46.5313 62.2132C46.1445 63.7386 45.9512 65.3285 45.9512 66.9828C45.9512 68.5941 46.1338 70.1195 46.499 71.559C46.8643 72.977 47.4121 74.2338 48.1426 75.3296C48.8731 76.4038 49.7969 77.2524 50.9141 77.8755C52.0313 78.4985 53.3311 78.8101 54.8136 78.8101C54.9855 78.8101 55.1466 78.8101 55.297 78.8101C55.4474 78.8101 55.5978 78.7993 55.7482 78.7778ZM55.7482 73.7827C55.6622 73.7827 55.5763 73.7934 55.4903 73.8149C55.4259 73.8149 55.3507 73.8149 55.2648 73.8149C53.9757 73.8149 52.9552 73.2563 52.2032 72.1391C51.4727 71.0219 51.1075 69.1527 51.1075 66.5316C51.1075 64.6625 51.3116 63.1585 51.7198 62.0198C52.128 60.8812 52.6866 60.0433 53.3956 59.5061C54.1046 58.9475 54.8888 58.636 55.7482 58.5716C55.8341 58.5716 55.92 58.5716 56.006 58.5716C56.0919 58.5501 56.1779 58.5393 56.2638 58.5393C57.5314 58.5393 58.5197 59.0872 59.2287 60.1829C59.9377 61.2571 60.2922 63.1048 60.2922 65.7259C60.2922 68.5189 59.8625 70.5385 59.0031 71.7846C58.1652 73.0092 57.0802 73.6752 55.7482 73.7827ZM55.6515 73.4604C56.9191 73.353 57.9503 72.7084 58.7453 71.5268C59.5617 70.3451 59.9699 68.4115 59.9699 65.7259C59.9699 64.5013 59.8947 63.4593 59.7443 62.5999C59.5939 61.7405 59.3683 61.0423 59.0675 60.5052C58.9601 60.4837 58.8527 60.473 58.7453 60.473C58.6378 60.4515 58.5304 60.4407 58.423 60.4407C57.1554 60.4407 56.2101 61.1068 55.587 62.4388C54.964 63.7494 54.6524 65.6507 54.6524 68.143C54.6524 69.3891 54.7384 70.4526 54.9103 71.3334C55.0821 72.1928 55.3292 72.9018 55.6515 73.4604ZM70.9605 79.1323V73.2026L73.7643 72.977L71.2183 71.7201V54.6399L76.0846 54.1887L79.3073 55.8001V72.8803L77.0514 73.1059L79.5651 74.3627V80.3247L74.1832 80.7437L70.9605 79.1323ZM71.5406 54.9299V71.3656L75.7623 70.9789V54.5432L71.5406 54.9299ZM71.2828 73.4926V78.7778L76.0201 78.4233V73.1059L71.2828 73.4926Z" fill="url(#paint2_linear_119_1275)"/>
<path d="M59.1857 37.7422L56.5753 33.3916V39.5147L51.0645 39.9981L47.8418 38.3867V13.8943L53.3526 13.4109L56.5753 15.0222V16.7625L58.7345 13.2497L64.9543 12.7019L68.177 14.3132L60.8615 25.786L68.8215 38.8057L62.4084 39.3535L59.1857 37.7422ZM64.342 13.0886L58.9279 13.572L53.0303 23.2079V13.7654L48.1641 14.1843V38.0322L53.0303 37.6455V30.7812L54.255 28.8798L59.3468 37.4199L65.0188 36.9043L57.2521 24.2069L64.342 13.0886ZM68.3588 38.4834V32.1669L74.1596 31.6513L77.3823 33.2626V39.6113L71.5815 40.0947L68.3588 38.4834ZM68.681 32.457V38.1289L73.8373 37.71V32.0058L68.681 32.457Z" fill="url(#paint3_linear_119_1275)"/>
<defs>
<linearGradient id="paint0_linear_119_1275" x1="16.8583" y1="2.37491" x2="26.7363" y2="43.0847" gradientUnits="userSpaceOnUse">
<stop offset="0.533654" stop-color="#1C1C28"/>
<stop offset="1" stop-color="#424260"/>
</linearGradient>
<linearGradient id="paint1_linear_119_1275" x1="14.6865" y1="38.3616" x2="24.9791" y2="78.8519" gradientUnits="userSpaceOnUse">
<stop offset="0.533654" stop-color="#1C1C28"/>
<stop offset="1" stop-color="#424260"/>
</linearGradient>
<linearGradient id="paint2_linear_119_1275" x1="60.9052" y1="36.0668" x2="69.9011" y2="86.4083" gradientUnits="userSpaceOnUse">
<stop offset="0.533654" stop-color="#1C1C28"/>
<stop offset="1" stop-color="#424260"/>
</linearGradient>
<linearGradient id="paint3_linear_119_1275" x1="60.7278" y1="-4.64659" x2="70.4842" y2="45.4005" gradientUnits="userSpaceOnUse">
<stop offset="0.533654" stop-color="#1C1C28"/>
<stop offset="1" stop-color="#424260"/>
</linearGradient>
</defs>
</svg>
