<svg width="34" height="34" viewBox="0 0 34 34" fill="none" xmlns="http://www.w3.org/2000/svg">
<path d="M30.5907 0H2.84109C1.3248 0 0 1.09101 0 2.58949V30.4007C0 31.9073 1.3248 33.2499 2.84109 33.2499H30.5825C32.107 33.2499 33.2499 31.8984 33.2499 30.4007V2.58949C33.2589 1.09101 32.107 0 30.5907 0ZM10.3067 27.7155H5.54339V12.9051H10.3067V27.7155ZM8.08983 10.6533H8.05569C6.53124 10.6533 5.54413 9.51854 5.54413 8.09799C5.54413 6.65147 6.55722 5.54339 8.11581 5.54339C9.6744 5.54339 10.6281 6.64331 10.6622 8.09799C10.6615 9.51854 9.6744 10.6533 8.08983 10.6533ZM27.7155 27.7155H22.9521V19.6175C22.9521 17.6774 22.2589 16.3518 20.5356 16.3518C19.2189 16.3518 18.4396 17.2425 18.093 18.1101C17.9631 18.4218 17.9283 18.8463 17.9283 19.2798V27.7155H13.1649V12.9051H17.9283V14.9662C18.6215 13.9791 19.7043 12.5585 22.224 12.5585C25.3509 12.5585 27.7162 14.6196 27.7162 19.0631L27.7155 27.7155Z" fill="white"/>
</svg>
