<svg width="34" height="34" viewBox="0 0 34 34" fill="none" xmlns="http://www.w3.org/2000/svg">
<mask id="mask0_119_1116" style="mask-type:alpha" maskUnits="userSpaceOnUse" x="0" y="0" width="34" height="34">
<rect width="33.25" height="33.25" fill="#D9D9D9"/>
</mask>
<g mask="url(#mask0_119_1116)">
<path d="M5.54134 27.7082C4.77936 27.7082 4.12706 27.4369 3.58444 26.8942C3.04182 26.3516 2.77051 25.6993 2.77051 24.9373V8.31234C2.77051 7.55036 3.04182 6.89806 3.58444 6.35544C4.12706 5.81281 4.77936 5.5415 5.54134 5.5415H27.708C28.47 5.5415 29.1223 5.81281 29.6649 6.35544C30.2075 6.89806 30.4788 7.55036 30.4788 8.31234V24.9373C30.4788 25.6993 30.2075 26.3516 29.6649 26.8942C29.1223 27.4369 28.47 27.7082 27.708 27.7082H5.54134ZM16.6247 17.7678C16.7401 17.7678 16.8613 17.7505 16.9883 17.7159C17.1153 17.6812 17.2366 17.6293 17.352 17.56L27.1538 11.4295C27.3386 11.3141 27.4771 11.1698 27.5695 10.9966C27.6618 10.8234 27.708 10.6329 27.708 10.4251C27.708 9.96329 27.5117 9.61694 27.1192 9.38604C26.7267 9.15513 26.3226 9.16668 25.907 9.42067L16.6247 15.2394L7.34238 9.42067C6.92676 9.16668 6.52268 9.16091 6.13014 9.40335C5.73761 9.6458 5.54134 9.98638 5.54134 10.4251C5.54134 10.656 5.58752 10.858 5.67988 11.0312C5.77224 11.2044 5.91079 11.3372 6.09551 11.4295L15.8973 17.56C16.0128 17.6293 16.134 17.6812 16.261 17.7159C16.388 17.7505 16.5092 17.7678 16.6247 17.7678Z" fill="white"/>
</g>
</svg>
