<svg width="1200" height="1200" viewBox="0 0 1200 1200" fill="none" xmlns="http://www.w3.org/2000/svg">
<rect width="1200" height="1200" fill="url(#paint0_linear_97_2992)"/>
<path d="M165.45 297.375L513.287 248.461V591.95H165.45V297.375Z" fill="white"/>
<path d="M560.024 241.939L1045.91 173.459V589.776H560.024V241.939Z" fill="white"/>
<path d="M164.366 635.981L512.202 637.603V981.092L164.366 933.273V635.981Z" fill="white"/>
<path d="M558.94 636.516L1047 638.478V1053.92L558.94 986.527V636.516Z" fill="white"/>
<path d="M234.377 487.064C245.247 489.42 254.758 490.597 262.911 490.597H265.9C270.067 490.235 272.875 488.604 274.324 485.706C275.955 482.807 276.77 478.821 276.77 473.749V327.82L323.239 323.744L350.413 337.332V495.76C350.413 531.812 335.105 551.197 304.488 553.914C298.872 554.458 293.528 554.729 288.455 554.729C283.926 554.729 279.668 554.548 275.683 554.186C271.697 553.824 268.164 553.371 265.085 552.827L237.638 539.24L234.377 487.064ZM279.487 330.266V473.749C279.487 479.727 278.491 484.437 276.498 487.88C274.505 491.141 271.063 492.952 266.172 493.315H262.911C259.287 493.315 255.03 493.043 250.139 492.499C245.247 491.956 240.99 491.322 237.366 490.597L240.356 536.794C242.892 537.156 245.881 537.519 249.323 537.881C252.765 538.243 256.66 538.425 261.008 538.425C266.081 538.425 271.425 538.153 277.042 537.609C306.028 535.254 320.521 516.775 320.521 482.173V326.733L279.487 330.266ZM373.019 539.24V485.977L421.934 481.629L449.109 495.217V548.751L400.194 552.827L373.019 539.24ZM375.737 488.423V536.251L419.216 532.718V484.619L375.737 488.423Z" fill="url(#paint1_linear_97_2992)"/>
<path d="M407.481 868.326C402.047 881.008 393.26 891.696 381.122 900.392C369.165 909.088 354.4 914.161 336.827 915.61C335.197 915.791 333.566 915.882 331.936 915.882C330.305 915.882 328.675 915.882 327.044 915.882C313.457 915.882 300.504 913.527 288.184 908.816C276.046 904.106 265.267 897.041 255.846 887.62C246.426 878.018 238.998 865.88 233.563 851.206C228.128 836.532 225.411 819.14 225.411 799.031C225.411 783.631 227.313 769.229 231.117 755.823C234.922 742.235 240.447 730.188 247.694 719.68C255.122 709.173 264.089 700.749 274.597 694.408C285.105 688.067 296.971 684.353 310.196 683.266C311.283 683.085 312.37 682.994 313.457 682.994C314.544 682.994 315.631 682.994 316.718 682.994C329.943 682.994 342.806 685.984 355.306 691.962C367.988 697.941 379.039 706.093 388.459 716.419C398.061 726.746 404.855 738.431 408.84 751.475L376.502 769.682L380.307 769.41L407.481 782.997V868.326ZM296.88 779.193V817.781L338.729 814.248V837.619C336.374 842.329 332.57 846.405 327.316 849.847C322.243 853.108 316.899 854.92 311.283 855.282C310.558 855.463 309.743 855.554 308.837 855.554C308.113 855.554 307.297 855.554 306.391 855.554C294.616 855.554 285.739 850.844 279.76 841.423C273.782 832.003 270.793 816.694 270.793 795.498C270.793 776.294 273.872 760.986 280.032 749.572C286.192 738.159 296.065 731.909 309.652 730.822H312.642C320.069 730.822 326.41 732.996 331.664 737.344C337.099 741.692 340.994 748.033 343.349 756.366L378.405 736.529C375.325 727.833 371.067 719.68 365.632 712.071C360.379 704.281 353.766 697.94 345.795 693.049C337.824 688.158 328.131 685.712 316.718 685.712C315.812 685.712 314.816 685.712 313.729 685.712C312.642 685.712 311.555 685.802 310.468 685.984C293.257 687.433 278.492 693.411 266.173 703.919C253.854 714.245 244.433 727.742 237.911 744.409C231.389 760.895 228.128 779.102 228.128 799.031C228.128 819.683 231.117 837.528 237.096 852.565C243.074 867.601 251.589 879.196 262.64 887.348C273.691 895.501 286.826 899.577 302.044 899.577C303.312 899.577 304.489 899.577 305.576 899.577C306.844 899.577 308.113 899.486 309.381 899.305C326.41 897.856 340.722 893.055 352.317 884.903C364.092 876.569 372.607 866.333 377.861 854.195V772.399L296.88 779.193ZM341.719 760.442C340.994 757.906 340.179 755.551 339.273 753.377C338.367 751.022 337.371 748.938 336.284 747.127C328.131 747.851 321.428 750.75 316.174 755.823C311.102 760.714 307.297 767.417 304.761 775.932L363.458 771.041L341.719 760.442ZM322.696 834.901L301.5 824.031C301.862 831.278 302.587 836.985 303.674 841.151C304.942 845.137 306.754 849.032 309.109 852.836C309.652 852.655 310.287 852.565 311.011 852.565C315.721 852.202 320.432 850.753 325.142 848.217C329.852 845.499 333.476 842.329 336.012 838.706V833.271L322.696 834.901Z" fill="url(#paint2_linear_97_2992)"/>
<path d="M761.403 967.305C759.882 967.523 758.251 967.631 756.512 967.631C754.99 967.631 753.468 967.631 751.947 967.631C740.642 967.631 730.207 966.001 720.641 962.74C711.293 959.696 702.163 956.109 693.249 951.979C669.988 940.457 652.922 924.261 642.052 903.39C631.4 882.303 626.073 857.302 626.073 828.388C626.073 811.431 628.139 795.017 632.269 779.147C636.617 763.06 643.03 748.603 651.509 735.777C659.987 722.733 670.531 712.08 683.14 703.819C695.967 695.558 710.967 690.667 728.142 689.145C729.881 688.927 731.511 688.819 733.033 688.819C734.555 688.819 736.077 688.819 737.598 688.819C748.468 688.819 758.142 690.232 766.621 693.058C775.1 695.667 783.687 698.71 792.383 702.189C808.035 708.493 821.079 717.841 831.514 730.233C841.949 742.625 849.776 757.19 854.993 773.93C860.211 790.452 862.82 808.17 862.82 827.084C862.82 844.693 860.754 861.541 856.624 877.629C852.493 893.716 846.189 908.282 837.71 921.326C829.449 934.152 818.905 944.587 806.079 952.631C793.47 960.892 778.578 965.783 761.403 967.305ZM728.468 947.739C745.207 946.435 759.773 941.87 772.165 934.043C784.556 926 794.774 915.673 802.818 903.064C810.861 890.238 816.84 875.998 820.753 860.346C824.884 844.476 826.949 827.953 826.949 810.779C826.949 795.126 825.101 780.234 821.405 766.104C817.927 751.755 812.492 739.038 805.1 727.95C797.709 716.863 788.361 708.167 777.056 701.863C765.969 695.341 752.816 692.08 737.598 692.08C736.077 692.08 734.555 692.08 733.033 692.08C731.729 692.08 730.207 692.188 728.468 692.406C711.728 693.927 697.162 698.71 684.771 706.754C672.379 714.58 662.053 724.907 653.792 737.733C645.53 750.342 639.335 764.473 635.204 780.126C631.291 795.561 629.334 811.648 629.334 828.388C629.334 844.693 631.182 860.128 634.878 874.694C638.574 889.042 644.117 901.76 651.509 912.847C658.9 923.717 668.248 932.304 679.553 938.609C690.858 944.913 704.01 948.066 719.011 948.066C720.75 948.066 722.381 948.066 723.902 948.066C725.424 948.066 726.946 947.957 728.468 947.739ZM728.468 897.194C727.598 897.194 726.728 897.303 725.859 897.521C725.207 897.521 724.446 897.521 723.576 897.521C710.532 897.521 700.206 891.868 692.597 880.564C685.205 869.259 681.51 850.345 681.51 823.823C681.51 804.909 683.575 789.691 687.706 778.169C691.836 766.647 697.488 758.169 704.663 752.734C711.837 747.081 719.772 743.929 728.468 743.277C729.337 743.277 730.207 743.277 731.076 743.277C731.946 743.059 732.816 742.951 733.685 742.951C746.512 742.951 756.512 748.494 763.686 759.582C770.86 770.452 774.447 789.148 774.447 815.67C774.447 843.932 770.099 864.367 761.403 876.976C752.925 889.368 741.946 896.107 728.468 897.194ZM727.489 893.934C740.316 892.847 750.751 886.325 758.795 874.368C767.056 862.411 771.186 842.845 771.186 815.67C771.186 803.279 770.425 792.735 768.904 784.039C767.382 775.343 765.099 768.278 762.056 762.843C760.969 762.625 759.882 762.517 758.795 762.517C757.708 762.299 756.621 762.19 755.534 762.19C742.707 762.19 733.142 768.93 726.837 782.408C720.533 795.67 717.38 814.909 717.38 840.128C717.38 852.737 718.25 863.498 719.989 872.411C721.728 881.107 724.228 888.281 727.489 893.934ZM882.398 951.327V891.325L910.768 889.042L885.007 876.324V703.493L934.247 698.928L966.857 715.232V888.064L944.03 890.346L969.466 903.064V963.392L915.008 967.631L882.398 951.327ZM888.268 706.428V872.737L930.986 868.824V702.515L888.268 706.428ZM885.659 894.26V947.739L933.595 944.152V890.346L885.659 894.26Z" fill="url(#paint3_linear_97_2992)"/>
<path d="M763.252 532.509L736.839 488.486V550.444L681.076 555.336L648.466 539.031V291.197L704.229 286.306L736.839 302.611V320.22L758.687 284.675L821.624 279.132L854.233 295.437L780.209 411.527L860.755 543.27L795.862 548.814L763.252 532.509ZM815.428 283.045L760.644 287.936L700.968 385.439V289.893L651.727 294.132V535.444L700.968 531.531V462.072L713.36 442.832L764.883 529.248L822.276 524.03L743.687 395.548L815.428 283.045ZM856.073 540.009V476.094L914.77 470.877L947.38 487.181V551.423L888.682 556.314L856.073 540.009ZM859.334 479.029V536.422L911.509 532.183V474.464L859.334 479.029Z" fill="url(#paint4_linear_97_2992)"/>
<path d="M162.95 211.466L158.116 207.765L161.817 202.932L166.65 206.633L162.95 211.466ZM164.494 223.104L159.661 219.403L163.361 214.569L168.195 218.27L164.494 223.104ZM173.414 223.893L171.722 220.96C172.103 220.462 172.524 219.867 172.985 219.174C173.468 218.452 173.9 217.539 174.28 216.436C174.656 215.307 174.903 213.893 175.019 212.193C175.136 210.493 175.033 208.428 174.71 205.997C174.384 203.54 173.939 201.573 173.374 200.095C172.832 198.588 172.229 197.418 171.566 196.585C170.929 195.749 170.304 195.108 169.693 194.663C169.081 194.218 168.541 193.816 168.072 193.457L168.94 190.184C169.328 190.132 169.901 190.188 170.66 190.35C171.444 190.509 172.32 190.867 173.289 191.422C174.254 191.952 175.218 192.772 176.181 193.881C177.144 194.99 178.011 196.467 178.782 198.312C179.554 200.157 180.123 202.463 180.49 205.23C180.857 207.997 180.914 210.411 180.662 212.471C180.409 214.531 179.971 216.286 179.347 217.737C178.721 219.163 178.019 220.322 177.243 221.214C176.467 222.107 175.724 222.758 175.015 223.168C174.336 223.6 173.802 223.842 173.414 223.893ZM170.399 270.565L167.778 250.82L163.123 251.438L162.304 245.27L173.891 242.154L174.588 244.43L174.715 248.36L177.536 269.618L170.399 270.565ZM193.426 267.904C191.228 268.196 189.189 268.006 187.311 267.334C185.458 266.659 183.892 265.366 182.612 263.457C181.329 261.522 180.456 258.809 179.992 255.318C179.532 251.853 179.671 249.031 180.408 246.855C181.142 244.652 182.316 242.983 183.928 241.848C185.563 240.683 187.48 239.955 189.678 239.664C191.902 239.368 193.942 239.571 195.798 240.272C197.655 240.973 199.224 242.291 200.508 244.227C201.787 246.136 202.655 248.81 203.112 252.25C203.568 255.689 203.43 258.51 202.696 260.713C201.962 262.916 200.79 264.597 199.181 265.758C197.568 266.894 195.65 267.609 193.426 267.904ZM192.53 261.154C193.927 260.969 194.902 260.287 195.456 259.108C196.036 257.926 196.144 255.964 195.78 253.223C195.417 250.481 194.8 248.616 193.932 247.626C193.09 246.632 191.97 246.228 190.574 246.413C189.203 246.595 188.23 247.29 187.653 248.498C187.077 249.707 186.967 251.655 187.324 254.345C187.681 257.034 188.295 258.887 189.167 259.903C190.038 260.919 191.16 261.336 192.53 261.154ZM219.641 264.425C217.442 264.716 215.404 264.526 213.525 263.855C211.673 263.179 210.106 261.887 208.827 259.978C207.543 258.043 206.67 255.33 206.207 251.839C205.747 248.373 205.886 245.552 206.623 243.375C207.357 241.173 208.53 239.504 210.143 238.369C211.778 237.204 213.694 236.476 215.893 236.184C218.117 235.889 220.157 236.092 222.013 236.793C223.869 237.494 225.439 238.812 226.722 240.747C228.002 242.656 228.87 245.331 229.326 248.77C229.783 252.21 229.644 255.031 228.91 257.234C228.176 259.436 227.005 261.118 225.396 262.279C223.783 263.414 221.865 264.129 219.641 264.425ZM218.745 257.675C220.141 257.49 221.117 256.807 221.671 255.629C222.251 254.446 222.359 252.485 221.995 249.743C221.631 247.002 221.015 245.136 220.147 244.146C219.304 243.153 218.185 242.749 216.788 242.934C215.418 243.116 214.444 243.811 213.868 245.019C213.291 246.227 213.181 248.176 213.538 250.866C213.895 253.555 214.51 255.408 215.381 256.424C216.253 257.44 217.374 257.857 218.745 257.675ZM240.01 246.05C238.303 246.276 236.869 246.177 235.707 245.752C234.542 245.302 233.637 244.632 232.993 243.744C232.349 242.856 231.948 241.817 231.79 240.627C231.632 239.438 231.748 238.33 232.138 237.305C232.529 236.279 233.229 235.41 234.24 234.697C235.247 233.958 236.604 233.475 238.311 233.249C239.992 233.025 241.415 233.139 242.58 233.59C243.741 234.015 244.644 234.671 245.289 235.559C245.959 236.444 246.373 237.481 246.531 238.671C246.688 239.861 246.559 240.97 246.143 241.999C245.753 243.024 245.054 243.907 244.047 244.645C243.036 245.359 241.691 245.827 240.01 246.05ZM236.959 261.731L236.65 259.404L247.963 243.81L253.646 231.608L260.861 230.65L261.17 232.978L250.528 247.377L244.174 260.774L236.959 261.731ZM239.443 241.783C240.064 241.7 240.501 241.524 240.755 241.253C241.031 240.954 241.185 240.63 241.218 240.284C241.277 239.934 241.289 239.63 241.255 239.371C241.221 239.113 241.129 238.822 240.981 238.5C240.859 238.174 240.627 237.915 240.286 237.723C239.967 237.503 239.498 237.433 238.877 237.516C238.256 237.598 237.808 237.789 237.532 238.089C237.278 238.359 237.122 238.67 237.063 239.02C237.03 239.366 237.031 239.669 237.065 239.927C237.1 240.186 237.178 240.478 237.3 240.804C237.448 241.126 237.682 241.398 238.001 241.619C238.342 241.81 238.823 241.865 239.443 241.783ZM259.122 259.185C257.415 259.411 255.981 259.312 254.819 258.887C253.654 258.437 252.749 257.767 252.105 256.879C251.457 255.965 251.056 254.926 250.902 253.762C250.744 252.573 250.86 251.465 251.25 250.44C251.641 249.414 252.341 248.545 253.352 247.832C254.359 247.093 255.716 246.61 257.423 246.383C259.104 246.16 260.527 246.274 261.692 246.725C262.854 247.15 263.757 247.806 264.401 248.694C265.071 249.579 265.485 250.616 265.643 251.806C265.797 252.97 265.668 254.079 265.255 255.134C264.865 256.159 264.166 257.041 263.159 257.78C262.149 258.493 260.803 258.962 259.122 259.185ZM258.556 254.918C259.176 254.835 259.613 254.659 259.867 254.388C260.143 254.088 260.297 253.765 260.33 253.419C260.389 253.069 260.401 252.765 260.367 252.506C260.333 252.247 260.242 251.957 260.094 251.634C259.971 251.309 259.74 251.05 259.398 250.858C259.08 250.637 258.61 250.568 257.989 250.651C257.369 250.733 256.92 250.924 256.644 251.224C256.391 251.494 256.234 251.805 256.176 252.154C256.143 252.501 256.143 252.803 256.178 253.062C256.212 253.321 256.29 253.613 256.412 253.939C256.56 254.261 256.794 254.533 257.113 254.754C257.454 254.945 257.935 255 258.556 254.918ZM288.221 255.323C286.437 255.559 284.781 255.476 283.254 255.074C281.753 254.668 280.483 253.823 279.444 252.54C278.431 251.253 277.767 249.42 277.451 247.041C277.132 244.636 277.334 242.688 278.057 241.197C278.777 239.681 279.821 238.529 281.191 237.742C282.56 236.955 284.059 236.453 285.688 236.237C287.111 236.048 288.333 235.939 289.355 235.908C290.404 235.875 291.101 235.874 291.447 235.907L294.926 238.919L292.384 243.559L287.573 241.514C285.349 241.809 284.419 243.327 284.783 246.068C284.971 247.491 285.447 248.493 286.208 249.076C286.966 249.634 288.044 249.82 289.44 249.634C290.837 249.449 292.065 249.089 293.126 248.553C294.186 248.018 295.005 247.541 295.581 247.122L296.322 252.708C295.575 253.228 294.563 253.731 293.285 254.216C292.03 254.672 290.342 255.041 288.221 255.323ZM309.408 252.511C306.253 252.929 303.709 252.504 301.777 251.234C299.846 249.964 298.657 247.648 298.211 244.286C297.761 240.898 298.305 238.352 299.842 236.648C301.375 234.918 303.72 233.844 306.875 233.425C310.107 232.996 312.651 233.422 314.505 234.702C316.381 235.953 317.545 238.273 317.994 241.66C318.44 245.022 317.923 247.565 316.441 249.288C314.985 251.007 312.64 252.082 309.408 252.511ZM308.738 247.468C309.799 247.327 310.484 246.841 310.795 246.011C311.102 245.154 311.162 244.015 310.973 242.592C310.781 241.144 310.426 240.059 309.91 239.338C309.393 238.618 308.604 238.327 307.544 238.468C306.458 238.612 305.746 239.102 305.41 239.936C305.099 240.766 305.04 241.906 305.232 243.354C305.421 244.776 305.775 245.861 306.295 246.608C306.838 247.325 307.652 247.612 308.738 247.468ZM319.598 234.539L320.486 232.013L326.266 231.246L326.488 232.914L326.868 233.101C327.118 232.804 327.466 232.456 327.913 232.054C328.382 231.623 328.96 231.218 329.646 230.837C330.333 230.457 331.129 230.206 332.034 230.086C334.723 229.729 336.768 230.366 338.169 231.996C338.549 231.287 339.166 230.587 340.022 229.894C340.899 229.173 342.179 228.7 343.86 228.477C346.187 228.168 348.021 228.596 349.359 229.76C350.698 230.925 351.525 232.697 351.841 235.076L352.5 240.041L353.83 243.812L353.329 246.287L346.347 247.213L344.993 237.011C344.862 236.029 344.543 235.308 344.034 234.849C343.549 234.361 342.853 234.177 341.948 234.297C341.353 234.376 340.865 234.664 340.484 235.162C340.103 235.66 339.957 236.245 340.046 236.918L341.498 247.857L334.515 248.784L333.166 238.62C333.036 237.638 332.717 236.917 332.208 236.458C331.722 235.97 331.027 235.786 330.122 235.906L327.815 236.962L329.472 249.453L322.49 250.38L320.94 238.703L319.598 234.539ZM359.274 255.09L356.469 233.949L355.126 229.785L356.015 227.259L361.795 226.492L362.016 228.16L362.43 228.302C362.43 228.302 362.637 228.077 363.051 227.628C363.465 227.178 364.049 226.719 364.802 226.25C365.578 225.753 366.51 225.432 367.596 225.287C369.897 224.982 371.793 225.48 373.281 226.783C374.796 228.082 375.764 230.322 376.186 233.503C376.502 235.882 376.422 237.853 375.945 239.417C375.49 240.951 374.75 242.115 373.724 242.909C372.698 243.703 371.499 244.191 370.129 244.373C368.267 244.62 366.929 244.653 366.115 244.471C365.324 244.26 364.929 244.155 364.929 244.155L366.257 254.163L359.274 255.09ZM366.126 239.496C367.109 239.366 367.851 238.912 368.353 238.135C368.881 237.354 369.051 236.252 368.862 234.83C368.677 233.434 368.296 232.445 367.718 231.863C367.141 231.282 366.374 231.055 365.417 231.182L363.353 232.285L364.275 239.229C364.275 239.229 364.416 239.302 364.699 239.449C365.004 239.566 365.48 239.582 366.126 239.496ZM380.792 242.642L377.931 221.389L376.641 217.613L377.146 215.178L384.129 214.251L387.774 241.715L380.792 242.642ZM401.394 240.302C399.403 240.567 397.592 240.504 395.961 240.115C394.331 239.727 392.983 238.892 391.918 237.612C390.854 236.333 390.164 234.503 389.848 232.124C389.621 230.417 389.712 228.918 390.119 227.627C390.553 226.333 391.211 225.245 392.094 224.365C392.974 223.459 393.999 222.757 395.17 222.259C396.338 221.736 397.568 221.388 398.861 221.217C401.085 220.922 402.821 220.915 404.069 221.197C405.343 221.475 406.191 221.718 406.613 221.925L409.371 227.835L408.915 230.343L396.889 231.939C397.197 232.872 397.782 233.61 398.644 234.154C399.505 234.697 400.828 234.851 402.613 234.614C404.009 234.429 405.191 234.114 406.159 233.67C407.126 233.226 407.879 232.849 408.417 232.541L409.107 237.739C408.386 238.256 407.309 238.767 405.876 239.273C404.466 239.75 402.972 240.093 401.394 240.302ZM396.599 229.452L401.849 227.965L401.278 226.344C401.084 226.264 400.802 226.223 400.433 226.219C400.09 226.212 399.789 226.225 399.53 226.26C398.806 226.356 398.219 226.592 397.769 226.967C397.345 227.339 397.032 227.762 396.832 228.236C396.654 228.681 396.576 229.086 396.599 229.452ZM420.814 237.725C419.055 237.958 417.577 237.628 416.38 236.734C415.182 235.841 414.478 234.605 414.269 233.028L413.147 224.571L410.315 224.947L409.826 221.262L412.017 219.037L414.133 213.861L418.711 213.253L419.457 218.878L424.888 218.157L425.557 223.2L420.126 223.921L421.228 232.222L426.654 231.463L427.215 235.691C427.215 235.691 426.918 235.836 426.325 236.125C425.754 236.385 424.99 236.671 424.031 236.982C423.076 237.319 422.003 237.567 420.814 237.725ZM439.769 235.209C437.777 235.473 435.967 235.411 434.336 235.022C432.705 234.633 431.358 233.799 430.293 232.519C429.228 231.239 428.538 229.41 428.223 227.031C427.996 225.324 428.087 223.825 428.494 222.534C428.928 221.24 429.586 220.152 430.469 219.272C431.349 218.366 432.374 217.664 433.545 217.166C434.712 216.643 435.943 216.295 437.236 216.124C439.46 215.829 441.196 215.822 442.444 216.104C443.718 216.382 444.566 216.625 444.988 216.832L447.746 222.742L447.289 225.25L435.264 226.846C435.572 227.779 436.157 228.517 437.019 229.061C437.88 229.604 439.203 229.758 440.988 229.521C442.384 229.336 443.566 229.021 444.533 228.577C445.501 228.132 446.254 227.756 446.792 227.448L447.481 232.646C446.761 233.163 445.684 233.674 444.251 234.18C442.84 234.657 441.346 235 439.769 235.209ZM434.973 224.358L440.224 222.872L439.653 221.25C439.458 221.171 439.176 221.129 438.808 221.126C438.464 221.119 438.164 221.132 437.905 221.167C437.181 221.263 436.594 221.499 436.144 221.874C435.719 222.246 435.407 222.669 435.207 223.143C435.029 223.588 434.951 223.993 434.973 224.358Z" fill="white"/>
<defs>
<linearGradient id="paint0_linear_97_2992" x1="543.583" y1="-118.636" x2="721.791" y2="1183.33" gradientUnits="userSpaceOnUse">
<stop offset="0.533654" stop-color="#1C1C28"/>
<stop offset="1" stop-color="#424260"/>
</linearGradient>
<linearGradient id="paint1_linear_97_2992" x1="334.215" y1="181.31" x2="434.032" y2="591.397" gradientUnits="userSpaceOnUse">
<stop offset="0.533654" stop-color="#1C1C28"/>
<stop offset="1" stop-color="#424260"/>
</linearGradient>
<linearGradient id="paint2_linear_97_2992" x1="309.124" y1="545.452" x2="416.219" y2="951.595" gradientUnits="userSpaceOnUse">
<stop offset="0.533654" stop-color="#1C1C28"/>
<stop offset="1" stop-color="#424260"/>
</linearGradient>
<linearGradient id="paint3_linear_97_2992" x1="780.072" y1="522.424" x2="870.072" y2="1028.11" gradientUnits="userSpaceOnUse">
<stop offset="0.533654" stop-color="#1C1C28"/>
<stop offset="1" stop-color="#424260"/>
</linearGradient>
<linearGradient id="paint4_linear_97_2992" x1="775.723" y1="110.454" x2="874.923" y2="612.556" gradientUnits="userSpaceOnUse">
<stop offset="0.533654" stop-color="#1C1C28"/>
<stop offset="1" stop-color="#424260"/>
</linearGradient>
</defs>
</svg>
